<svg width="0" height="0" class="hidden">
  <symbol fill="none" xmlns="http://www.w3.org/2000/svg" viewBox="0 0 32 32" id="instagram3">
    <path fill-rule="evenodd" clip-rule="evenodd" d="M16.0175 18.8948C17.6103 18.8948 18.9022 17.6067 18.9022 16.0167C18.9022 14.4276 17.6103 13.1395 16.0175 13.1395C14.4247 13.1395 13.1328 14.4276 13.1328 16.0167C13.1328 17.6067 14.4247 18.8948 16.0175 18.8948ZM19.3392 13.0694H21.367C21.5986 13.0694 21.787 12.8819 21.787 12.6512V10.6272C21.787 10.3966 21.5986 10.2091 21.367 10.2091H19.3392C19.1076 10.2091 18.9192 10.3966 18.9192 10.6272V12.6512C18.9192 12.8819 19.1076 13.0694 19.3392 13.0694ZM23.5 21.7206C23.5 22.7031 22.7022 23.5 21.7169 23.5H10.2831C9.29875 23.5 8.5 22.7031 8.5 21.7206V10.2784C8.5 9.29594 9.29875 8.5 10.2831 8.5H21.7169C22.7022 8.5 23.5 9.29594 23.5 10.2784V21.7206ZM16 1C7.71531 1 1 7.71531 1 16C1 24.2837 7.71531 31 16 31C24.2847 31 31 24.2837 31 16C31 7.71531 24.2847 1 16 1ZM20.5804 16.0171C20.5804 18.5268 18.5339 20.5696 16.0176 20.5696C13.5014 20.5696 11.4548 18.5268 11.4548 16.0171C11.4548 15.6008 11.5111 15.1967 11.617 14.8133H10.2136V21.3364C10.2136 21.568 10.4011 21.7555 10.6326 21.7555H21.4017C21.6342 21.7555 21.8217 21.568 21.8217 21.3364V14.8133H20.4183C20.5242 15.1967 20.5804 15.6008 20.5804 16.0171Z" fill="#505050"></path>
  </symbol>
  <symbol fill="none" xmlns="http://www.w3.org/2000/svg" viewBox="0 0 32 32" id="linkedin">
    <path fill-rule="evenodd" clip-rule="evenodd" d="M26.5647 26.5628H22.1153V19.6009C22.1153 17.9406 22.0872 15.805 19.8034 15.805C17.4888 15.805 17.1353 17.6144 17.1353 19.4819V26.5628H12.6906V12.2463H16.9563V14.2038H17.0172C17.6106 13.0778 19.0619 11.8909 21.2266 11.8909C25.7322 11.8909 26.5647 14.8553 26.5647 18.7113V26.5628ZM7.67406 10.2906C6.24438 10.2906 5.09219 9.13469 5.09219 7.70969C5.09219 6.28562 6.24438 5.12969 7.67406 5.12969C9.09719 5.12969 10.2531 6.28562 10.2531 7.70969C10.2531 9.13469 9.09719 10.2906 7.67406 10.2906ZM9.89969 26.5628H5.44562V12.2463H9.89969V26.5628ZM29.7503 1H2.25063C1.55969 1 1 1.55969 1 2.24969V29.7494C1 30.4403 1.55969 31 2.25063 31H29.7503C30.4403 31 31 30.4403 31 29.7494V2.24969C31 1.55969 30.4403 1 29.7503 1Z" fill="#505050"></path>
  </symbol>
  <symbol fill="none" xmlns="http://www.w3.org/2000/svg" viewBox="0 0 32 32" id="linkedin2">
    <path fill-rule="evenodd" clip-rule="evenodd" d="M23.5 23.4859H20.3922V18.6222C20.3922 17.4625 20.3716 15.9709 18.7769 15.9709C17.1597 15.9709 16.9131 17.2347 16.9131 18.5397V23.4859H13.8081V13.4847H16.7875V14.8525H16.8306C17.245 14.0659 18.2594 13.2362 19.7716 13.2362C22.9187 13.2362 23.5 15.3072 23.5 18.0006V23.4859ZM10.3038 12.1187C9.30531 12.1187 8.5 11.3106 8.5 10.3159C8.5 9.32125 9.30531 8.51312 10.3038 8.51312C11.2975 8.51312 12.1047 9.32125 12.1047 10.3159C12.1047 11.3106 11.2975 12.1187 10.3038 12.1187ZM11.8581 23.4859H8.74656V13.4847H11.8581V23.4859ZM1 31H31V1H1V31Z" fill="#505050"></path>
  </symbol>
  <symbol fill="none" xmlns="http://www.w3.org/2000/svg" viewBox="0 0 32 32" id="linkedin3">
    <path fill-rule="evenodd" clip-rule="evenodd" d="M23.5 23.4859H20.3922V18.6222C20.3922 17.4625 20.3716 15.9709 18.7769 15.9709C17.1597 15.9709 16.9131 17.2347 16.9131 18.5397V23.4859H13.8081V13.4847H16.7875V14.8525H16.8306C17.245 14.0659 18.2594 13.2362 19.7716 13.2362C22.9187 13.2362 23.5 15.3072 23.5 18.0006V23.4859ZM10.3038 12.1187C9.30531 12.1187 8.5 11.3106 8.5 10.3159C8.5 9.32125 9.30531 8.51312 10.3038 8.51312C11.2975 8.51312 12.1047 9.32125 12.1047 10.3159C12.1047 11.3106 11.2975 12.1187 10.3038 12.1187ZM11.8581 23.4859H8.74656V13.4847H11.8581V23.4859ZM16 1C7.71531 1 1 7.71531 1 16C1 24.2837 7.71531 31 16 31C24.2847 31 31 24.2837 31 16C31 7.71531 24.2847 1 16 1Z" fill="#505050"></path>
  </symbol>
  <symbol fill="none" xmlns="http://www.w3.org/2000/svg" viewBox="0 0 32 32" id="twitter">
    <path fill-rule="evenodd" clip-rule="evenodd" d="M31 6.84068C29.8966 7.32244 28.7097 7.64822 27.4647 7.79496C28.7359 7.04465 29.7119 5.8578 30.1712 4.44299C28.9825 5.13701 27.6644 5.64092 26.2628 5.91317C25.1397 4.73555 23.5403 4 21.7703 4C18.3709 4 15.6156 6.7124 15.6156 10.0588C15.6156 10.5332 15.67 10.9956 15.775 11.4395C10.6591 11.1866 6.12437 8.77416 3.08875 5.1084C2.55906 6.00361 2.25531 7.04465 2.25531 8.15489C2.25531 10.2563 3.34187 12.1114 4.99281 13.1976C3.98406 13.1662 3.03531 12.894 2.20563 12.4399C2.20469 12.4658 2.20469 12.4907 2.20469 12.5165C2.20469 15.4523 4.32625 17.9007 7.1425 18.4572C6.62594 18.5957 6.08219 18.6695 5.52063 18.6695C5.12406 18.6695 4.73875 18.6316 4.36281 18.5615C5.14563 20.9684 7.41906 22.7201 10.1125 22.769C8.00594 24.3942 5.35187 25.3624 2.46812 25.3624C1.97125 25.3624 1.48188 25.3337 1 25.2784C3.72344 26.9968 6.95875 28 10.435 28C21.7563 28 27.9466 18.7673 27.9466 10.7612C27.9466 10.4981 27.9409 10.237 27.9287 9.9767C29.1316 9.12301 30.175 8.05614 31 6.84068Z" fill="#505050"></path>
  </symbol>
  <symbol fill="none" xmlns="http://www.w3.org/2000/svg" viewBox="0 0 32 32" id="twitter2">
    <path fill-rule="evenodd" clip-rule="evenodd" d="M21.9644 12.9409C21.97 13.0731 21.9738 13.2053 21.9738 13.3394C21.9738 17.4053 18.8781 22.0947 13.2175 22.0947C11.4794 22.0947 9.86219 21.5856 8.5 20.7128C8.74094 20.7409 8.98562 20.755 9.23406 20.755C10.6759 20.755 12.0025 20.2638 13.0562 19.4378C11.7091 19.4134 10.5728 18.5238 10.1809 17.3013C10.3694 17.3369 10.5616 17.3556 10.7603 17.3556C11.0406 17.3556 11.3125 17.3181 11.5712 17.2478C10.1631 16.9656 9.10281 15.7216 9.10281 14.2309C9.10281 14.2178 9.10281 14.2047 9.10281 14.1916C9.51719 14.4222 9.9925 14.5609 10.4969 14.5769C9.67094 14.0247 9.12719 13.0825 9.12719 12.0156C9.12719 11.4513 9.27906 10.9225 9.54437 10.4678C11.0622 12.3297 13.33 13.555 15.8875 13.6834C15.835 13.4584 15.8078 13.2231 15.8078 12.9822C15.8078 11.2825 17.1859 9.90438 18.8847 9.90438C19.7706 9.90438 20.5703 10.2784 21.1309 10.8766C21.8322 10.7388 22.4912 10.4828 23.0856 10.1303C22.8559 10.8484 22.3675 11.4513 21.7328 11.8328C22.3553 11.7578 22.9478 11.5928 23.5 11.3481C23.0875 11.965 22.5653 12.5069 21.9644 12.9409ZM1 31H31V1H1V31Z" fill="#505050"></path>
  </symbol>
  <symbol fill="none" xmlns="http://www.w3.org/2000/svg" viewBox="0 0 32 32" id="twitter3">
    <path fill-rule="evenodd" clip-rule="evenodd" d="M21.9644 12.9409C21.97 13.0731 21.9738 13.2053 21.9738 13.3394C21.9738 17.4053 18.8781 22.0947 13.2175 22.0947C11.4794 22.0947 9.86219 21.5856 8.5 20.7128C8.74094 20.7409 8.98562 20.755 9.23406 20.755C10.6759 20.755 12.0025 20.2638 13.0562 19.4378C11.7091 19.4134 10.5728 18.5238 10.1809 17.3013C10.3694 17.3369 10.5616 17.3556 10.7603 17.3556C11.0406 17.3556 11.3125 17.3181 11.5712 17.2478C10.1631 16.9656 9.10281 15.7216 9.10281 14.2309C9.10281 14.2178 9.10281 14.2047 9.10281 14.1916C9.51719 14.4222 9.9925 14.5609 10.4969 14.5769C9.67094 14.0247 9.12719 13.0825 9.12719 12.0156C9.12719 11.4513 9.27906 10.9225 9.54437 10.4678C11.0622 12.3297 13.33 13.555 15.8875 13.6834C15.835 13.4584 15.8078 13.2231 15.8078 12.9822C15.8078 11.2825 17.1859 9.90438 18.8847 9.90438C19.7706 9.90438 20.5703 10.2784 21.1309 10.8766C21.8322 10.7388 22.4912 10.4828 23.0856 10.1303C22.8559 10.8484 22.3675 11.4513 21.7328 11.8328C22.3553 11.7578 22.9478 11.5928 23.5 11.3481C23.0875 11.965 22.5653 12.5069 21.9644 12.9409ZM16 1C7.71531 1 1 7.71531 1 16C1 24.2837 7.71531 31 16 31C24.2847 31 31 24.2837 31 16C31 7.71531 24.2847 1 16 1Z" fill="#505050"></path>
  </symbol>
  <symbol fill="none" xmlns="http://www.w3.org/2000/svg" viewBox="0 0 32 32" id="whatsapp">
    <path fill-rule="evenodd" clip-rule="evenodd" d="M9.28515 26.2412L9.73811 26.5094C11.6451 27.6353 13.8298 28.2306 16.057 28.2316H16.0626C22.9051 28.2316 28.4753 22.6881 28.4781 15.8753C28.479 12.5744 27.1889 9.46937 24.845 7.13406C22.5011 4.79875 19.3831 3.51156 16.0673 3.51062C9.21923 3.51062 3.64997 9.05313 3.64714 15.8659C3.6462 18.2003 4.30257 20.4737 5.54563 22.4416L5.84038 22.9084L4.58603 27.4684L9.28515 26.2412ZM1 31L3.11884 23.2966C1.81175 21.0419 1.12431 18.4844 1.12525 15.865C1.12807 7.66844 7.82927 1 16.0626 1C20.0583 1.00094 23.8091 2.54969 26.6286 5.35938C29.449 8.16906 31.0009 11.9041 31 15.8763C30.9962 24.0728 24.295 30.7422 16.0626 30.7422H16.056C13.5567 30.7412 11.0998 30.1169 8.91788 28.9328L1 31ZM12.0304 9.227C11.7084 8.454 11.3824 8.559 11.1384 8.547C10.9074 8.535 10.6434 8.533 10.3794 8.533C10.1144 8.533 9.6854 8.632 9.3224 9.029C8.9594 9.425 7.9354 10.384 7.9354 12.334C7.9354 14.284 9.3554 16.168 9.5534 16.433C9.7514 16.697 12.3484 20.699 16.3234 22.415C17.2694 22.823 18.0074 23.067 18.5834 23.25C19.5324 23.551 20.3964 23.509 21.0794 23.407C21.8414 23.293 23.4244 22.448 23.7544 21.523C24.0854 20.597 24.0854 19.804 23.9864 19.639C23.8874 19.474 23.6224 19.374 23.2264 19.176C22.8304 18.978 20.8814 18.019 20.5184 17.887C20.1544 17.755 19.8904 17.689 19.6264 18.085C19.3624 18.482 18.6024 19.374 18.3714 19.639C18.1404 19.903 17.9094 19.936 17.5124 19.738C17.1164 19.54 15.8394 19.121 14.3254 17.771C13.1474 16.721 12.3524 15.423 12.1204 15.027C11.8894 14.63 12.0964 14.416 12.2944 14.218C12.4724 14.041 12.6914 13.755 12.8894 13.524C13.0874 13.293 13.1534 13.127 13.2854 12.863C13.4174 12.598 13.3514 12.367 13.2524 12.169C13.1534 11.97 12.3604 10.02 12.0304 9.227Z" fill="#505050"></path>
  </symbol>
  <symbol fill="none" xmlns="http://www.w3.org/2000/svg" viewBox="0 0 32 32" id="whatsapp2">
    <path fill-rule="evenodd" clip-rule="evenodd" d="M19.6683 18.5884C19.5137 19.0225 18.7712 19.4181 18.414 19.4716C18.0943 19.5194 17.6893 19.5391 17.244 19.3984C16.974 19.3122 16.628 19.1978 16.1855 19.0066C14.3218 18.2022 13.104 16.3263 13.0112 16.2025C12.9183 16.0788 12.2527 15.1956 12.2527 14.2816C12.2527 13.3675 12.7327 12.9175 12.9033 12.7319C13.073 12.5463 13.2746 12.4994 13.3983 12.4994C13.5221 12.4994 13.6458 12.5003 13.7546 12.5059C13.869 12.5116 14.0218 12.4628 14.1727 12.8247C14.3274 13.1969 14.6987 14.1109 14.7455 14.2038C14.7915 14.2966 14.8224 14.4053 14.7605 14.5291C14.6987 14.6528 14.6677 14.7306 14.5749 14.8394C14.4821 14.9472 14.3799 15.0813 14.2965 15.1647C14.2037 15.2566 14.1062 15.3578 14.2149 15.5434C14.3237 15.7291 14.6958 16.3375 15.248 16.8297C15.9577 17.4625 16.5568 17.6584 16.7424 17.7522C16.928 17.845 17.0368 17.8291 17.1446 17.7053C17.2533 17.5816 17.6096 17.1634 17.7333 16.9769C17.8571 16.7913 17.9808 16.8222 18.1515 16.8841C18.3212 16.9459 19.2352 17.395 19.4208 17.4888C19.6065 17.5816 19.7302 17.6275 19.7771 17.7053C19.823 17.7831 19.823 18.1544 19.6683 18.5884ZM16.0337 9.75531C12.6249 9.75531 9.85178 12.5266 9.85084 15.9325C9.85084 17.0997 10.1771 18.2369 10.7958 19.2203L10.943 19.4538L10.3187 21.7337L12.6577 21.1206L12.8827 21.2537C13.8315 21.8172 14.919 22.1153 16.028 22.1153H16.0308C19.4368 22.1153 22.209 19.3441 22.2108 15.9372C22.2108 14.2863 21.5696 12.7347 20.4024 11.5666C19.2352 10.3994 17.6837 9.75531 16.0337 9.75531ZM16.0309 23.3706H16.0281C14.7831 23.3706 13.5606 23.0584 12.475 22.4659L8.53281 23.5L9.58844 19.6478C8.93781 18.5209 8.59469 17.2422 8.59562 15.9316C8.5975 11.8337 11.9322 8.5 16.0309 8.5C18.0194 8.5 19.8869 9.27437 21.2903 10.6797C22.6938 12.0841 23.4672 13.9516 23.4662 15.9381C23.4644 20.0359 20.1287 23.3706 16.0309 23.3706ZM1 31H31V1H1V31Z" fill="#505050"></path>
  </symbol>
  <symbol fill="none" xmlns="http://www.w3.org/2000/svg" viewBox="0 0 32 32" id="whatsapp3">
    <path fill-rule="evenodd" clip-rule="evenodd" d="M19.6683 18.5884C19.5137 19.0225 18.7712 19.4181 18.414 19.4716C18.0943 19.5194 17.6893 19.5391 17.244 19.3984C16.974 19.3122 16.628 19.1978 16.1855 19.0066C14.3218 18.2022 13.104 16.3263 13.0112 16.2025C12.9183 16.0788 12.2527 15.1956 12.2527 14.2816C12.2527 13.3675 12.7327 12.9175 12.9033 12.7319C13.073 12.5463 13.2746 12.4994 13.3983 12.4994C13.5221 12.4994 13.6458 12.5003 13.7546 12.5059C13.869 12.5116 14.0218 12.4628 14.1727 12.8247C14.3274 13.1969 14.6987 14.1109 14.7455 14.2038C14.7915 14.2966 14.8224 14.4053 14.7605 14.5291C14.6987 14.6528 14.6677 14.7306 14.5749 14.8394C14.4821 14.9472 14.3799 15.0813 14.2965 15.1647C14.2037 15.2566 14.1062 15.3578 14.2149 15.5434C14.3237 15.7291 14.6958 16.3375 15.248 16.8297C15.9577 17.4625 16.5568 17.6584 16.7424 17.7522C16.928 17.845 17.0368 17.8291 17.1446 17.7053C17.2533 17.5816 17.6096 17.1634 17.7333 16.9769C17.8571 16.7913 17.9808 16.8222 18.1515 16.8841C18.3212 16.9459 19.2352 17.395 19.4208 17.4888C19.6065 17.5816 19.7302 17.6275 19.7771 17.7053C19.823 17.7831 19.823 18.1544 19.6683 18.5884ZM16.0337 9.75531C12.6249 9.75531 9.85178 12.5266 9.85084 15.9325C9.85084 17.0997 10.1771 18.2369 10.7958 19.2203L10.943 19.4538L10.3187 21.7337L12.6577 21.1206L12.8827 21.2537C13.8315 21.8172 14.919 22.1153 16.028 22.1153H16.0308C19.4368 22.1153 22.209 19.3441 22.2108 15.9372C22.2108 14.2863 21.5696 12.7347 20.4024 11.5666C19.2352 10.3994 17.6837 9.75531 16.0337 9.75531ZM16.0309 23.3706H16.0281C14.7831 23.3706 13.5606 23.0584 12.475 22.4659L8.53281 23.5L9.58844 19.6478C8.93781 18.5209 8.59469 17.2422 8.59562 15.9316C8.5975 11.8337 11.9322 8.5 16.0309 8.5C18.0194 8.5 19.8869 9.27437 21.2903 10.6797C22.6938 12.0841 23.4672 13.9516 23.4662 15.9381C23.4644 20.0359 20.1287 23.3706 16.0309 23.3706ZM16 1C7.71531 1 1 7.71531 1 16C1 24.2837 7.71531 31 16 31C24.2837 31 31 24.2837 31 16C31 7.71531 24.2837 1 16 1Z" fill="#505050"></path>
  </symbol>
  <symbol fill="none" xmlns="http://www.w3.org/2000/svg" viewBox="0 0 32 32" id="youtube">
    <path fill-rule="evenodd" clip-rule="evenodd" d="M12.9025 20.3726L12.9016 11.9836L21.0072 16.1926L12.9025 20.3726ZM30.7 10.5299C30.7 10.5299 30.4066 8.47256 29.5075 7.56658C28.3666 6.37695 27.0878 6.37135 26.5019 6.30231C22.3037 6 16.0066 6 16.0066 6H15.9934C15.9934 6 9.69625 6 5.49813 6.30231C4.91125 6.37135 3.63344 6.37695 2.49156 7.56658C1.5925 8.47256 1.3 10.5299 1.3 10.5299C1.3 10.5299 1 12.9465 1 15.3622V17.6276C1 20.0442 1.3 22.4598 1.3 22.4598C1.3 22.4598 1.5925 24.5172 2.49156 25.4232C3.63344 26.6128 5.1325 26.5755 5.8 26.6996C8.2 26.9291 16 27 16 27C16 27 22.3037 26.9907 26.5019 26.6884C27.0878 26.6184 28.3666 26.6128 29.5075 25.4232C30.4066 24.5172 30.7 22.4598 30.7 22.4598C30.7 22.4598 31 20.0442 31 17.6276V15.3622C31 12.9465 30.7 10.5299 30.7 10.5299Z" fill="#505050"></path>
  </symbol>
  <symbol fill="none" xmlns="http://www.w3.org/2000/svg" viewBox="0 0 32 32" id="youtube2">
    <path fill-rule="evenodd" clip-rule="evenodd" d="M14.4514 17.9452L18.5042 15.8452L14.4505 13.7302L14.4514 17.9452ZM23.5 16.5662C23.5 17.7803 23.35 18.9944 23.35 18.9944C23.35 18.9944 23.2038 20.0275 22.7537 20.4831C22.1838 21.0803 21.5444 21.0831 21.2509 21.1178C19.1519 21.2697 16 21.2744 16 21.2744C16 21.2744 12.1 21.2388 10.9 21.1244C10.5662 21.0616 9.81625 21.0803 9.24625 20.4831C8.79625 20.0275 8.65 18.9944 8.65 18.9944C8.65 18.9944 8.5 17.7803 8.5 16.5662V15.4281C8.5 14.2141 8.65 13.0009 8.65 13.0009C8.65 13.0009 8.79625 11.9669 9.24625 11.5113C9.81625 10.9141 10.4556 10.9113 10.7491 10.8766C12.8481 10.7247 15.9972 10.7247 15.9972 10.7247H16.0028C16.0028 10.7247 19.1519 10.7247 21.2509 10.8766C21.5444 10.9113 22.1838 10.9141 22.7537 11.5113C23.2038 11.9669 23.35 13.0009 23.35 13.0009C23.35 13.0009 23.5 14.2141 23.5 15.4281V16.5662ZM1 31H31V1H1V31Z" fill="#505050"></path>
  </symbol>
  <symbol fill="none" xmlns="http://www.w3.org/2000/svg" viewBox="0 0 32 32" id="youtube3">
    <path fill-rule="evenodd" clip-rule="evenodd" d="M23.5 16.5662C23.5 17.7803 23.35 18.9944 23.35 18.9944C23.35 18.9944 23.2038 20.0275 22.7537 20.4831C22.1838 21.0803 21.5444 21.0831 21.2509 21.1178C19.1519 21.2697 16 21.2744 16 21.2744C16 21.2744 12.1 21.2388 10.9 21.1244C10.5662 21.0616 9.81625 21.0803 9.24625 20.4831C8.79625 20.0275 8.65 18.9944 8.65 18.9944C8.65 18.9944 8.5 17.7803 8.5 16.5662V15.4281C8.5 14.2141 8.65 13.0009 8.65 13.0009C8.65 13.0009 8.79625 11.9669 9.24625 11.5113C9.81625 10.9141 10.4556 10.9113 10.7491 10.8766C12.8481 10.7247 15.9972 10.7247 15.9972 10.7247H16.0028C16.0028 10.7247 19.1519 10.7247 21.2509 10.8766C21.5444 10.9113 22.1838 10.9141 22.7537 11.5113C23.2038 11.9669 23.35 13.0009 23.35 13.0009C23.35 13.0009 23.5 14.2141 23.5 15.4281V16.5662ZM16 1C7.71531 1 1 7.71531 1 16C1 24.2837 7.71531 31 16 31C24.2847 31 31 24.2837 31 16C31 7.71531 24.2847 1 16 1ZM14.4514 17.9453L18.5042 15.8453L14.4505 13.7303L14.4514 17.9453Z" fill="#505050"></path>
  </symbol>
  <symbol fill="none" xmlns="http://www.w3.org/2000/svg" viewBox="0 0 32 32" id="facebook">
    <path fill-rule="evenodd" clip-rule="evenodd" d="M6 2C3.79086 2 2 3.79086 2 6V26C2 28.2091 3.79086 30 6 30H15.8331V20.4209H12.5224V16.6878H15.8331V13.9349C15.8331 10.7398 17.8366 9 20.7642 9C22.1665 9 23.371 9.10204 23.7224 9.14739V12.4868L21.6924 12.4878C20.1006 12.4878 19.7926 13.2247 19.7926 14.3049V16.6888H23.589L23.0948 20.4219H19.7926V30H26C28.2091 30 30 28.2091 30 26V6C30 3.79086 28.2091 2 26 2H6Z" fill="#505050"></path>
  </symbol>
  <symbol fill="none" xmlns="http://www.w3.org/2000/svg" viewBox="0 0 32 32" id="facebook2">
    <path fill-rule="evenodd" clip-rule="evenodd" d="M19.8953 10.99L18.4834 10.9909C17.3762 10.9909 17.1616 11.5169 17.1616 12.2884V13.9909H19.8025L19.4584 16.6581H17.1616V23.5H14.4081V16.6581H12.1056V13.9909H14.4081V12.025C14.4081 9.74219 15.8022 8.5 17.8375 8.5C18.8125 8.5 19.6506 8.57219 19.8953 8.605V10.99ZM1 31H31V1H1V31Z" fill="#505050"></path>
  </symbol>
  <symbol fill="none" xmlns="http://www.w3.org/2000/svg" viewBox="0 0 32 32" id="facebook3">
    <path fill-rule="evenodd" clip-rule="evenodd" d="M19.8953 10.99L18.4834 10.9909C17.3762 10.9909 17.1616 11.5169 17.1616 12.2884V13.9909H19.8025L19.4584 16.6581H17.1616V23.5H14.4081V16.6581H12.1056V13.9909H14.4081V12.025C14.4081 9.74219 15.8022 8.5 17.8375 8.5C18.8125 8.5 19.6506 8.57219 19.8953 8.605V10.99ZM16 1C7.71625 1 1 7.71531 1 16C1 24.2837 7.71625 31 16 31C24.2847 31 31 24.2837 31 16C31 7.71531 24.2847 1 16 1Z" fill="#505050"></path>
  </symbol>
  <symbol fill="none" xmlns="http://www.w3.org/2000/svg" viewBox="0 0 32 32" id="instagram">
    <path fill-rule="evenodd" clip-rule="evenodd" d="M16 1C11.9262 1 11.4163 1.0175 9.81625 1.09C4.36875 1.34 1.34125 4.3625 1.09125 9.815C1.0175 11.4163 1 11.9262 1 16C1 20.0737 1.0175 20.585 1.09 22.185C1.34 27.6325 4.3625 30.66 9.815 30.91C11.4163 30.9825 11.9262 31 16 31C20.0737 31 20.585 30.9825 22.185 30.91C27.6275 30.66 30.6625 27.6375 30.9088 22.185C30.9825 20.585 31 20.0737 31 16C31 11.9262 30.9825 11.4163 30.91 9.81625C30.665 4.37375 27.6388 1.34125 22.1862 1.09125C20.585 1.0175 20.0737 1 16 1ZM16 8.29744C11.7463 8.29744 8.29751 11.7462 8.29751 15.9999C8.29751 20.2537 11.7463 23.7037 16 23.7037C20.2538 23.7037 23.7025 20.2549 23.7025 15.9999C23.7025 11.7462 20.2538 8.29744 16 8.29744ZM16 21C13.2388 21 11 18.7625 11 16C11 13.2387 13.2388 11 16 11C18.7613 11 21 13.2387 21 16C21 18.7625 18.7613 21 16 21ZM24.0075 6.19379C23.0125 6.19379 22.2062 7.00004 22.2062 7.99379C22.2062 8.98754 23.0125 9.79379 24.0075 9.79379C25.0012 9.79379 25.8062 8.98754 25.8062 7.99379C25.8062 7.00004 25.0012 6.19379 24.0075 6.19379Z" fill="#505050"></path>
  </symbol>
  <symbol fill="none" xmlns="http://www.w3.org/2000/svg" viewBox="0 0 32 32" id="instagram2">
    <path fill-rule="evenodd" clip-rule="evenodd" d="M20.5804 16.0171C20.5804 18.5268 18.5339 20.5696 16.0176 20.5696C13.5014 20.5696 11.4548 18.5268 11.4548 16.0171C11.4548 15.6008 11.5111 15.1967 11.617 14.8133H10.2136V21.3364C10.2136 21.568 10.4011 21.7555 10.6326 21.7555H21.4017C21.6342 21.7555 21.8217 21.568 21.8217 21.3364V14.8133H20.4183C20.5242 15.1967 20.5804 15.6008 20.5804 16.0171ZM19.3392 13.0694H21.367C21.5986 13.0694 21.787 12.8819 21.787 12.6512V10.6272C21.787 10.3966 21.5986 10.2091 21.367 10.2091H19.3392C19.1076 10.2091 18.9192 10.3966 18.9192 10.6272V12.6512C18.9192 12.8819 19.1076 13.0694 19.3392 13.0694ZM16.0175 18.8948C17.6103 18.8948 18.9022 17.6067 18.9022 16.0167C18.9022 14.4276 17.6103 13.1395 16.0175 13.1395C14.4247 13.1395 13.1328 14.4276 13.1328 16.0167C13.1328 17.6067 14.4247 18.8948 16.0175 18.8948ZM23.5 21.7206C23.5 22.7031 22.7022 23.5 21.7169 23.5H10.2831C9.29875 23.5 8.5 22.7031 8.5 21.7206V10.2784C8.5 9.29594 9.29875 8.5 10.2831 8.5H21.7169C22.7022 8.5 23.5 9.29594 23.5 10.2784V21.7206ZM1 31H31V1H1V31Z" fill="#505050"></path>
  </symbol>
</svg>